# File created by Blade
# Date/Time:  Tue Jan 27 19:32:46 2015
#---------------------------------------------------------
:version 1.10
:name HOM
:units
  mass 1.0
  length 1.000000
  angle deg
:documentation
     Acclaim Skeleton File
:root
   axis xyz
   order TX TY TZ RX RY RZ
   position 0.000000 0.000000 0.000000
   orientation 0 0 0
:bonedata
   begin
      id 1
      name Spine_dum
      direction 0.000000 1.000000 0.000000
      length 6.116652
      axis 0.0 0.0 0.0 xyz
   end
   begin
      id 2
      name LeftUpLeg_dum
      direction 1.000000 0.000000 0.000000
      length 4.711765
      axis 0.0 0.0 0.0 xyz
   end
   begin
      id 3
      name RightUpLeg_dum
      direction -1.000000 0.000000 0.000000
      length 4.711765
      axis 0.0 0.0 0.0 xyz
   end
   begin
      id 4
      name Spine
      direction 0.000000 1.000000 0.000000
      length 0.000000
      axis 0.0 0.0 0.0 xyz
      dof rx ry rz
   end
   begin
      id 5
      name Spine_dum1
      direction 0.000000 1.000000 0.000000
      length 15.225563
      axis 0.0 0.0 0.0 xyz
   end
   begin
      id 6
      name Spine_dum2
      direction 0.000000 1.000000 0.000000
      length 8.977654
      axis 0.0 0.0 0.0 xyz
   end
   begin
      id 7
      name Spine_dum3
      direction 0.000000 1.000000 0.000000
      length 8.977654
      axis 0.0 0.0 0.0 xyz
   end
   begin
      id 8
      name Head
      direction 0.000000 1.000000 0.000000
      length 4.527550
      axis 0.0 0.0 0.0 xyz
      dof rx ry rz
   end
   begin
      id 9
      name LeftShoulder
      direction 1.000000 0.000000 0.000000
      length 7.110130
      axis 0.0 0.0 -90.0 xyz
      dof rx ry rz
   end
   begin
      id 10
      name LeftArm
      direction 1.000000 0.000000 0.000000
      length 10.398341
      axis 0.0 0.0 -90.0 xyz
      dof rx ry rz
   end
   begin
      id 11
      name LeftForeArm
      direction 1.000000 0.000000 0.000000
      length 8.888997
      axis 0.0 0.0 -90.0 xyz
      dof ry rz rx
   end
   begin
      id 12
      name LeftHand
      direction 0.000000 0.000000 0.000000
      length 0.000000
      axis 0.0 0.0 -90.0 xyz
      dof rx ry rz
   end
   begin
      id 13
      name LeftHand_dum1
      direction 0.000000 0.000000 0.000000
      length 0.000000
      axis 0.0 0.0 -90.0 xyz
   end
   begin
      id 14
      name LeftHand_dum2
      direction 1.000000 0.000000 0.000000
      length 3.937000
      axis 0.0 0.0 -90.0 xyz
   end
   begin
      id 15
      name LeftHandThumb1
      direction 0.000000 0.000000 1.000000
      length 3.937000
      axis 0.0 0.0 -90.0 xyz
      dof rx rz ry
   end
   begin
      id 16
      name RightShoulder
      direction -1.000000 0.000000 0.000000
      length 7.110130
      axis 0.0 0.0 90.0 xyz
      dof rx ry rz
   end
   begin
      id 17
      name RightArm
      direction -1.000000 0.000000 0.000000
      length 10.398341
      axis 0.0 0.0 90.0 xyz
      dof rx ry rz
   end
   begin
      id 18
      name RightForeArm
      direction -1.000000 0.000000 0.000000
      length 8.888997
      axis 0.0 0.0 90.0 xyz
      dof ry rz rx
   end
   begin
      id 19
      name RightHand
      direction 0.000000 0.000000 0.000000
      length 0.000000
      axis 0.0 0.0 90.0 xyz
      dof rx ry rz
   end
   begin
      id 20
      name RightHand_dum1
      direction 0.000000 0.000000 0.000000
      length 0.000000
      axis 0.0 0.0 90.0 xyz
   end
   begin
      id 21
      name RightHand_dum2
      direction -1.000000 0.000000 0.000000
      length 3.937000
      axis 0.0 0.0 90.0 xyz
   end
   begin
      id 22
      name RightHandThumb1
      direction 0.000000 0.000000 1.000000
      length 3.937000
      axis 0.0 0.0 90.0 xyz
      dof rx rz ry
   end
   begin
      id 23
      name LeftUpLeg
      direction 0.000000 -1.000000 0.000000
      length 15.510451
      axis 0.0 0.0 0.0 xyz
      dof rx ry rz
   end
   begin
      id 24
      name LeftLeg
      direction 0.000000 -1.000000 0.000000
      length 14.858061
      axis 0.0 0.0 0.0 xyz
      dof rx ry rz
   end
   begin
      id 25
      name LeftFoot
      direction 0.000000 -0.258819 0.965926
      length 5.128852
      axis 15.0 0.0 0.0 xyz
      dof rx ry rz
   end
   begin
      id 26
      name LeftToeBase
      direction 0.000000 0.000000 1.000000
      length 2.952750
      axis 0.0 0.0 0.0 xyz
      dof rx ry rz
   end
   begin
      id 27
      name RightUpLeg
      direction 0.000000 -1.000000 0.000000
      length 15.510451
      axis 0.0 0.0 0.0 xyz
      dof rx ry rz
   end
   begin
      id 28
      name RightLeg
      direction 0.000000 -1.000000 0.000000
      length 14.858061
      axis 0.0 0.0 0.0 xyz
      dof rx ry rz
   end
   begin
      id 29
      name RightFoot
      direction 0.000000 -0.258819 0.965926
      length 5.128852
      axis 15.0 0.0 0.0 xyz
      dof rx ry rz
   end
   begin
      id 30
      name RightToeBase
      direction 0.000000 0.000000 1.000000
      length 2.952750
      axis 0.0 0.0 0.0 xyz
      dof rx ry rz
   end
:hierarchy
   begin
      root Spine_dum LeftUpLeg_dum RightUpLeg_dum
      Spine_dum Spine
      LeftUpLeg_dum LeftUpLeg
      RightUpLeg_dum RightUpLeg
      Spine Spine_dum1 Spine_dum2 Spine_dum3
      Spine_dum1 Head
      Spine_dum2 LeftShoulder
      Spine_dum3 RightShoulder
      LeftShoulder LeftArm
      LeftArm LeftForeArm
      LeftForeArm LeftHand
      LeftHand LeftHand_dum1 LeftHand_dum2
      LeftHand_dum1 LeftHandThumb1
      RightShoulder RightArm
      RightArm RightForeArm
      RightForeArm RightHand
      RightHand RightHand_dum1 RightHand_dum2
      RightHand_dum1 RightHandThumb1
      LeftUpLeg LeftLeg
      LeftLeg LeftFoot
      LeftFoot LeftToeBase
      RightUpLeg RightLeg
      RightLeg RightFoot
      RightFoot RightToeBase
   end

# File created by Blade
# Date/Time:  Tue Jan 27 19:32:37 2015
# Frame Rate: 120.000 fps
#------------------------------------------------------
:FULLY-SPECIFIED
:DEGREES
1434
root 3.954303 32.242110 -0.594791 -6.270379 -0.453170 -0.194203
Spine 2.122639 10.635793 -1.401569
Head 12.238855 -22.946857 0.302295
LeftShoulder -2.209519 -8.293181 25.838597
LeftArm -1.396898 43.734810 -101.885905
LeftForeArm 1.857503 -0.000000 8.802211
LeftHand 10.182587 -0.000000 -6.596553
LeftHandThumb1 -26.253704 0.000000 33.147579
RightShoulder -6.343522 2.305864 -25.912495
RightArm 33.829618 38.021952 97.132090
RightForeArm 6.008329 0.000000 120.826950
RightHand 28.916700 -0.000000 -23.116051
RightHandThumb1 -24.326973 -0.000000 -32.862282
LeftUpLeg 11.879380 2.226327 -1.596139
LeftLeg 3.028134 -0.000000 -0.000000
LeftFoot -21.525862 18.318861 -23.035217
LeftToeBase 16.237329 -0.000000 -0.000000
RightUpLeg 10.411116 -9.354252 0.635682
RightLeg 1.532322 -0.000000 -0.000000
RightFoot -12.729447 -12.228335 14.162660
RightToeBase 11.396726 -0.000000 -0.000000
1435
root 3.959993 32.242237 -0.588051 -6.206575 -0.416622 -0.179623
Spine 2.095435 10.452739 -1.478817
Head 12.171355 -22.778218 0.442526
LeftShoulder -2.312994 -8.286496 25.824824
LeftArm -1.319068 43.825810 -101.870156
LeftForeArm 1.894608 0.000000 8.851933
LeftHand 10.278100 -0.000000 -6.821586
LeftHandThumb1 -26.253704 0.000000 33.147579
RightShoulder -6.580072 1.918061 -25.898155
RightArm 33.497570 39.601460 96.783203
RightForeArm 6.343814 -0.000000 120.723571
RightHand 29.053567 0.000000 -22.895268
RightHandThumb1 -24.326973 -0.000000 -32.862282
LeftUpLeg 11.829586 2.169003 -1.628854
LeftLeg 3.014092 -0.000000 -0.000000
LeftFoot -21.509573 18.322545 -23.033968
LeftToeBase 16.265311 -0.000000 -0.000000
RightUpLeg 10.361144 -9.395733 0.615227
RightLeg 1.537851 -0.000000 -0.000000
RightFoot -12.743799 -12.231915 14.151326
RightToeBase 11.351989 -0.000000 -0.000000
1436
root 3.964443 32.242850 -0.578159 -6.168556 -0.370168 -0.168342
Spine 2.097655 10.264881 -1.526145
Head 12.104687 -22.560219 0.508571
LeftShoulder -2.383116 -8.101281 25.778794
LeftArm -1.034205 43.949586 -101.681012
LeftForeArm 2.028041 -0.000000 8.958205
LeftHand 10.110900 -0.000000 -6.031356
LeftHandThumb1 -26.253704 0.000000 33.147579
RightShoulder -6.992548 1.918752 -25.868894
RightArm 32.684007 40.814190 95.935821
RightForeArm 6.315476 -0.000000 120.460925
RightHand 29.012860 -0.000000 -23.121811
RightHandThumb1 -24.326973 -0.000000 -32.862282
LeftUpLeg 11.814309 2.151701 -1.644665
LeftLeg 2.990571 -0.000000 -0.000000
LeftFoot -21.463716 18.283103 -23.008024
LeftToeBase 16.230239 -0.000000 -0.000000
RightUpLeg 10.351148 -9.456343 0.591212
RightLeg 1.533332 -0.000000 -0.000000
RightFoot -12.770191 -12.210686 14.194300
RightToeBase 11.407999 -0.000000 -0.000000
1437
root 3.971041 32.243283 -0.567387 -6.115877 -0.315372 -0.147287
Spine 2.090925 10.005639 -1.571034
Head 12.008362 -22.313620 0.542530
LeftShoulder -2.567400 -8.141254 25.742495
LeftArm -1.083699 44.004742 -101.702361
LeftForeArm 2.054935 -0.000000 9.095505
LeftHand 10.168693 -0.000000 -6.143645
LeftHandThumb1 -26.253704 0.000000 33.147579
RightShoulder -7.118821 0.845934 -25.818672
RightArm 33.077891 42.322614 96.040735
RightForeArm 6.991036 -0.000000 120.368301
RightHand 29.164731 -0.000000 -22.878432
RightHandThumb1 -24.326973 -0.000000 -32.862282
LeftUpLeg 11.784222 2.116515 -1.677939
LeftLeg 2.967479 -0.000000 -0.000000
LeftFoot -21.438741 18.264523 -23.005862
LeftToeBase 16.245195 -0.000000 -0.000000
RightUpLeg 10.328200 -9.543303 0.551442
RightLeg 1.530017 -0.000000 -0.000000
RightFoot -12.780972 -12.177667 14.192209
RightToeBase 11.353952 -0.000000 -0.000000
1438
root 3.978416 32.243418 -0.556895 -6.078981 -0.248299 -0.137902
Spine 2.076132 9.772264 -1.604677
Head 12.007206 -22.160280 0.563317
LeftShoulder -2.589020 -8.319293 25.731030
LeftArm -1.346628 43.901806 -101.902639
LeftForeArm 2.023092 0.000000 9.259035
LeftHand 10.151365 0.000000 -6.514648
LeftHandThumb1 -26.253704 0.000000 33.147579
RightShoulder -7.286342 0.475388 -25.816379
RightArm 32.483697 43.739235 95.424033
RightForeArm 7.127268 -0.000000 120.197739
RightHand 29.226329 -0.000000 -23.058981
RightHandThumb1 -24.326973 -0.000000 -32.862282
LeftUpLeg 11.779033 2.039373 -1.709389
LeftLeg 2.924876 -0.000000 -0.000000
LeftFoot -21.417668 18.257626 -23.018408
LeftToeBase 16.278713 -0.000000 -0.000000
RightUpLeg 10.334585 -9.599190 0.524626
RightLeg 1.499024 -0.000000 -0.000000
RightFoot -12.790270 -12.189443 14.200370
RightToeBase 11.400859 -0.000000 -0.000000
1439
root 3.985729 32.242880 -0.546763 -6.040805 -0.169333 -0.117857
Spine 2.095724 9.586461 -1.644791
Head 11.875809 -22.012180 0.622482
LeftShoulder -2.717431 -7.986550 25.677922
LeftArm -0.777790 44.083822 -101.521662
LeftForeArm 1.954570 -0.000000 9.333035
LeftHand 10.137078 -0.000000 -6.314797
LeftHandThumb1 -26.253704 0.000000 33.147579
RightShoulder -7.556177 0.561114 -25.872857
RightArm 31.207744 45.135064 94.292662
RightForeArm 7.241689 0.000000 119.997190
RightHand 29.202379 -0.000000 -23.632765
RightHandThumb1 -24.326973 -0.000000 -32.862282
LeftUpLeg 11.763567 1.991319 -1.743464
LeftLeg 2.897465 -0.000000 -0.000000
LeftFoot -21.384761 18.229387 -22.992640
LeftToeBase 16.283640 -0.000000 -0.000000
RightUpLeg 10.333534 -9.615013 0.497724
RightLeg 1.485624 -0.000000 -0.000000
RightFoot -12.844950 -12.238269 14.245921
RightToeBase 11.367998 -0.000000 -0.000000
1440
root 3.992072 32.242459 -0.537255 -5.991635 -0.079683 -0.102740
Spine 2.109884 9.419545 -1.688917
Head 11.750983 -21.862763 0.714387
LeftShoulder -2.794246 -8.084232 25.657184
LeftArm -0.823195 44.104662 -101.551515
LeftForeArm 2.104684 -0.000000 9.502953
LeftHand 10.021995 -0.000000 -5.627596
LeftHandThumb1 -26.253704 0.000000 33.147579
RightShoulder -7.850418 0.324652 -25.857548
RightArm 30.344688 46.587142 93.476675
RightForeArm 7.786215 -0.000000 119.815019
RightHand 29.286365 -0.000000 -23.143338
RightHandThumb1 -24.326973 -0.000000 -32.862282
LeftUpLeg 11.733551 1.911041 -1.778487
LeftLeg 2.880490 -0.000000 -0.000000
LeftFoot -21.378555 18.225290 -22.977203
LeftToeBase 16.266679 -0.000000 -0.000000
RightUpLeg 10.326042 -9.662334 0.475418
RightLeg 1.461638 -0.000000 -0.000000
RightFoot -12.873847 -12.289207 14.252494
RightToeBase 11.391555 -0.000000 -0.000000
1441
root 3.997715 32.242687 -0.527523 -5.941390 0.016077 -0.094369
Spine 2.107054 9.245049 -1.719107
Head 11.689481 -21.731210 0.728055
LeftShoulder -2.856463 -8.130734 25.625097
LeftArm -0.816333 44.121146 -101.536437
LeftForeArm 2.107912 0.000000 9.680688
LeftHand 10.130104 -0.000000 -5.691356
LeftHandThumb1 -26.253704 0.000000 33.147579
RightShoulder -8.057881 0.048073 -25.850555
RightArm 29.362575 48.008465 92.538871
RightForeArm 7.840375 -0.000000 119.662889
RightHand 29.117939 -0.000000 -23.073179
RightHandThumb1 -24.326973 -0.000000 -32.862282
LeftUpLeg 11.705802 1.846322 -1.797869
LeftLeg 2.835915 -0.000000 -0.000000
LeftFoot -21.320330 18.201005 -22.956011
LeftToeBase 16.280871 -0.000000 -0.000000
RightUpLeg 10.310657 -9.729914 0.457608
RightLeg 1.451680 -0.000000 -0.000000
RightFoot -12.890568 -12.324777 14.267478
RightToeBase 11.304671 -0.000000 -0.000000
1442
root 4.007228 32.242829 -0.517715 -5.886056 0.120012 -0.063853
Spine 2.116896 9.074732 -1.758950
Head 11.566242 -21.626190 0.750767
LeftShoulder -2.966619 -8.122840 25.583570
LeftArm -0.682243 44.132982 -101.444171
LeftForeArm 2.089748 0.000000 9.810360
LeftHand 10.193373 -0.000000 -5.706654
LeftHandThumb1 -26.253704 0.000000 33.147579
RightShoulder -8.249602 -0.344952 -25.837708
RightArm 28.437943 49.415386 91.642567
RightForeArm 7.889452 -0.000000 119.546907
RightHand 28.930690 -0.000000 -23.150567
RightHandThumb1 -24.326973 -0.000000 -32.862282
LeftUpLeg 11.666081 1.829397 -1.834195
LeftLeg 2.811495 -0.000000 -0.000000
LeftFoot -21.256838 18.114461 -22.917955
LeftToeBase 16.370333 -0.000000 -0.000000
RightUpLeg 10.300394 -9.782923 0.412822
RightLeg 1.426931 -0.000000 -0.000000
RightFoot -12.929282 -12.362745 14.298971
RightToeBase 11.260510 -0.000000 -0.000000
